
<svg width="48" height="48" viewBox="0 0 48 48" fill="none" xmlns="http://www.w3.org/2000/svg">
  <rect width="48" height="48" rx="24" fill="#C88A3D"/>
  <path d="M15 14H33C33.5523 14 34 14.4477 34 15V19C34 19.5523 33.5523 20 33 20H15C14.4477 20 14 19.5523 14 19V15C14 14.4477 14.4477 14 15 14Z" fill="#3E2723"/>
  <path d="M16 20H32V33C32 34.6569 30.6569 36 29 36H19C17.3431 36 16 34.6569 16 33V20Z" fill="#D4A76A"/>
  <path d="M19 24C19 23.4477 19.4477 23 20 23C20.5523 23 21 23.4477 21 24V32C21 32.5523 20.5523 33 20 33C19.4477 33 19 32.5523 19 32V24Z" fill="#3E2723"/>
  <path d="M24 24C24 23.4477 24.4477 23 25 23C25.5523 23 26 23.4477 26 24V32C26 32.5523 25.5523 33 25 33C24.4477 33 24 32.5523 24 32V24Z" fill="#3E2723"/>
  <path d="M29 24C29 23.4477 28.5523 23 28 23C27.4477 23 27 23.4477 27 24V32C27 32.5523 27.4477 33 28 33C28.5523 33 29 32.5523 29 32V24Z" fill="#3E2723"/>
  <path d="M20 20L22 14H26L28 20H20Z" fill="#5D4037"/>
</svg>
